<svg xmlns="http://www.w3.org/2000/svg" xmlns:xlink="http://www.w3.org/1999/xlink" width="192" zoomAndPan="magnify" viewBox="0 0 144 143.999998" height="192" preserveAspectRatio="xMidYMid meet" version="1.0"><defs><clipPath id="e1db9fd1db"><path d="M 9.449219 0 L 129 0 L 129 144 L 9.449219 144 Z M 9.449219 0 " clip-rule="nonzero"/></clipPath></defs><g clip-path="url(#e1db9fd1db)"><path fill="#1c3f60" d="M 111.28125 42.175781 L 69.105469 0 L 26.929688 42.175781 C 15.664062 53.441406 9.457031 68.421875 9.457031 84.351562 C 9.457031 100.285156 15.664062 115.261719 26.929688 126.53125 C 38.195312 137.796875 53.171875 144 69.105469 144 C 85.039062 144 100.015625 137.796875 111.28125 126.53125 C 134.539062 103.273438 134.539062 65.433594 111.28125 42.175781 Z M 123.644531 89.707031 C 100.382812 90.640625 80.351562 104.945312 71.515625 125.503906 L 71.515625 112.910156 C 71.515625 86.007812 92.980469 64.03125 119.683594 63.195312 C 123.195312 71.621094 124.519531 80.753906 123.644531 89.707031 Z M 16.203125 98.835938 L 66.695312 114.03125 L 66.695312 124.988281 L 21.355469 111.34375 C 19.121094 107.40625 17.394531 103.207031 16.203125 98.835938 Z M 71.515625 9.226562 L 92.238281 29.949219 C 83.015625 35.742188 75.875 44.078125 71.515625 53.75 Z M 66.695312 29.046875 L 51.460938 24.460938 L 66.695312 9.226562 Z M 66.695312 34.082031 L 66.695312 45.039062 L 39.167969 36.753906 L 47.589844 28.332031 Z M 66.695312 77.019531 L 18.753906 62.589844 C 20.175781 59.308594 21.917969 56.167969 23.972656 53.203125 L 66.695312 66.0625 Z M 66.695312 82.050781 L 66.695312 93.007812 L 14.71875 77.367188 C 15.164062 73.855469 15.9375 70.421875 17.035156 67.105469 Z M 66.695312 98.042969 L 66.695312 109 L 15.027344 93.449219 C 14.535156 90.472656 14.277344 87.433594 14.277344 84.351562 C 14.277344 83.660156 14.296875 82.96875 14.320312 82.28125 Z M 117.445312 58.480469 C 104.296875 59.378906 92.066406 64.921875 82.667969 74.320312 C 77.941406 79.046875 74.191406 84.492188 71.515625 90.410156 L 71.515625 76.167969 C 71.515625 58.613281 80.753906 42.410156 95.738281 33.449219 L 107.875 45.585938 C 111.777344 49.488281 114.96875 53.84375 117.445312 58.480469 Z M 35.300781 40.621094 L 66.695312 50.070312 L 66.695312 61.027344 L 27.105469 49.113281 C 28.128906 47.898438 29.203125 46.71875 30.339844 45.585938 Z M 30.335938 123.121094 C 28.601562 121.382812 27 119.550781 25.527344 117.632812 L 66.695312 130.023438 L 66.695312 139.125 C 52.957031 138.535156 40.121094 132.90625 30.335938 123.121094 Z M 107.875 123.121094 C 98.304688 132.691406 85.816406 138.285156 72.417969 139.078125 C 76.933594 114.40625 97.800781 95.980469 122.953125 94.566406 C 120.980469 105.035156 115.957031 115.039062 107.875 123.121094 Z M 107.875 123.121094 " fill-opacity="1" fill-rule="nonzero"/><path fill="#1c3f60" d="M 111.28125 42.175781 L 69.105469 0 L 26.929688 42.175781 C 15.664062 53.441406 9.457031 68.421875 9.457031 84.351562 C 9.457031 100.285156 15.664062 115.261719 26.929688 126.53125 C 38.195312 137.796875 53.171875 144 69.105469 144 C 85.039062 144 100.015625 137.796875 111.28125 126.53125 C 134.539062 103.273438 134.539062 65.433594 111.28125 42.175781 Z M 123.644531 89.707031 C 100.382812 90.640625 80.351562 104.945312 71.515625 125.503906 L 71.515625 112.910156 C 71.515625 86.007812 92.980469 64.03125 119.683594 63.195312 C 123.195312 71.621094 124.519531 80.753906 123.644531 89.707031 Z M 16.203125 98.835938 L 66.695312 114.03125 L 66.695312 124.988281 L 21.355469 111.34375 C 19.121094 107.40625 17.394531 103.207031 16.203125 98.835938 Z M 71.515625 9.226562 L 92.238281 29.949219 C 83.015625 35.742188 75.875 44.078125 71.515625 53.75 Z M 66.695312 29.046875 L 51.460938 24.460938 L 66.695312 9.226562 Z M 66.695312 34.082031 L 66.695312 45.039062 L 39.167969 36.753906 L 47.589844 28.332031 Z M 66.695312 77.019531 L 18.753906 62.589844 C 20.175781 59.308594 21.917969 56.167969 23.972656 53.203125 L 66.695312 66.0625 Z M 66.695312 82.050781 L 66.695312 93.007812 L 14.71875 77.367188 C 15.164062 73.855469 15.9375 70.421875 17.035156 67.105469 Z M 66.695312 98.042969 L 66.695312 109 L 15.027344 93.449219 C 14.535156 90.472656 14.277344 87.433594 14.277344 84.351562 C 14.277344 83.660156 14.296875 82.96875 14.320312 82.28125 Z M 117.445312 58.480469 C 104.296875 59.378906 92.066406 64.921875 82.667969 74.320312 C 77.941406 79.046875 74.191406 84.492188 71.515625 90.410156 L 71.515625 76.167969 C 71.515625 58.613281 80.753906 42.410156 95.738281 33.449219 L 107.875 45.585938 C 111.777344 49.488281 114.96875 53.84375 117.445312 58.480469 Z M 35.300781 40.621094 L 66.695312 50.070312 L 66.695312 61.027344 L 27.105469 49.113281 C 28.128906 47.898438 29.203125 46.71875 30.339844 45.585938 Z M 30.335938 123.121094 C 28.601562 121.382812 27 119.550781 25.527344 117.632812 L 66.695312 130.023438 L 66.695312 139.125 C 52.957031 138.535156 40.121094 132.90625 30.335938 123.121094 Z M 107.875 123.121094 C 98.304688 132.691406 85.816406 138.285156 72.417969 139.078125 C 76.933594 114.40625 97.800781 95.980469 122.953125 94.566406 C 120.980469 105.035156 115.957031 115.039062 107.875 123.121094 Z M 107.875 123.121094 " fill-opacity="1" fill-rule="nonzero"/></g></svg>